HIERARCHY
ROOT Hips
{
	OFFSET 0.00000 0.00000 0.00000
	CHANNELS 6 Xposition Yposition Zposition Zrotation Yrotation Xrotation 
	JOINT LHipJoint
	{
		OFFSET 0 0 0
		CHANNELS 3 Zrotation Yrotation Xrotation
		JOINT LeftUpLeg
		{
			OFFSET 1.84395 -1.68683 0.74144
			CHANNELS 3 Zrotation Yrotation Xrotation
			JOINT LeftLeg
			{
				OFFSET 2.27037 -6.23779 0.00000
				CHANNELS 3 Zrotation Yrotation Xrotation
				JOINT LeftFoot
				{
					OFFSET 2.56918 -7.05877 0.00000
					CHANNELS 3 Zrotation Yrotation Xrotation
					JOINT LeftToeBase
					{
						OFFSET 0.22276 -0.61202 1.71784
						CHANNELS 3 Zrotation Yrotation Xrotation
						End Site
						{
							OFFSET 0.00000 -0.00000 0.91613
						}
					}
				}
			}
		}
	}
	JOINT RHipJoint
	{
		OFFSET 0 0 0
		CHANNELS 3 Zrotation Yrotation Xrotation
		JOINT RightUpLeg
		{
			OFFSET -1.76833 -1.68684 0.74144
			CHANNELS 3 Zrotation Yrotation Xrotation
			JOINT RightLeg
			{
				OFFSET -2.49360 -6.85110 0.00000
				CHANNELS 3 Zrotation Yrotation Xrotation
				JOINT RightFoot
				{
					OFFSET -2.55538 -7.02085 0.00000
					CHANNELS 3 Zrotation Yrotation Xrotation
					JOINT RightToeBase
					{
						OFFSET -0.21516 -0.59115 1.68050
						CHANNELS 3 Zrotation Yrotation Xrotation
						End Site
						{
							OFFSET -0.00000 -0.00000 0.89604
						}
					}
				}
			}
		}
	}
	JOINT LowerBack
	{
		OFFSET 0 0 0
		CHANNELS 3 Zrotation Yrotation Xrotation
		JOINT Spine
		{
			OFFSET 0.06382 1.72312 -0.19613
			CHANNELS 3 Zrotation Yrotation Xrotation
			JOINT Spine1
			{
				OFFSET -0.00055 1.73507 0.23859
				CHANNELS 3 Zrotation Yrotation Xrotation
				JOINT Neck
				{
					OFFSET 0 0 0
					CHANNELS 3 Zrotation Yrotation Xrotation
					JOINT Neck1
					{
						OFFSET 0.03638 1.65562 0.09633
						CHANNELS 3 Zrotation Yrotation Xrotation
						JOINT Head
						{
							OFFSET 0.06388 1.62807 -0.32386
							CHANNELS 3 Zrotation Yrotation Xrotation
							End Site
							{
								OFFSET 0.00995 1.67644 -0.12021
							}
						}
					}
				}
				JOINT LeftShoulder
				{
					OFFSET 0 0 0
					CHANNELS 3 Zrotation Yrotation Xrotation
					JOINT LeftArm
					{
						OFFSET 3.09648 1.42991 0.28122
						CHANNELS 3 Zrotation Yrotation Xrotation
						JOINT LeftForeArm
						{
							OFFSET 5.11878 -0.00000 -0.00000
							CHANNELS 3 Zrotation Yrotation Xrotation
							JOINT LeftHand
							{
								OFFSET 3.59971 -0.00000 0.00000
								CHANNELS 3 Zrotation Yrotation Xrotation
								JOINT LeftFingerBase
								{
									OFFSET 0 0 0
									CHANNELS 3 Zrotation Yrotation Xrotation
									JOINT LeftHandIndex1
									{
										OFFSET 0.62877 -0.00000 0.00000
										CHANNELS 3 Zrotation Yrotation Xrotation
										End Site
										{
											OFFSET 0.50693 -0.00000 0.00000
										}
									}
								}
								JOINT LThumb
								{
									OFFSET 0 0 0
									CHANNELS 3 Zrotation Yrotation Xrotation
									End Site
									{
										OFFSET 0.51467 -0.00000 0.51467
									}
								}
							}
						}
					}
				}
				JOINT RightShoulder
				{
					OFFSET 0 0 0
					CHANNELS 3 Zrotation Yrotation Xrotation
					JOINT RightArm
					{
						OFFSET -3.33565 1.14597 0.05047
						CHANNELS 3 Zrotation Yrotation Xrotation
						JOINT RightForeArm
						{
							OFFSET -5.49020 -0.00000 0.00000
							CHANNELS 3 Zrotation Yrotation Xrotation
							JOINT RightHand
							{
								OFFSET -3.20659 -0.00000 -0.00000
								CHANNELS 3 Zrotation Yrotation Xrotation
								JOINT RightFingerBase
								{
									OFFSET 0 0 0
									CHANNELS 3 Zrotation Yrotation Xrotation
									JOINT RightHandIndex1
									{
										OFFSET -0.69188 -0.00000 0.00000
										CHANNELS 3 Zrotation Yrotation Xrotation
										End Site
										{
											OFFSET -0.55781 -0.00000 0.00000
										}
									}
								}
								JOINT RThumb
								{
									OFFSET 0 0 0
									CHANNELS 3 Zrotation Yrotation Xrotation
									End Site
									{
										OFFSET -0.56633 -0.00000 0.56633
									}
								}
							}
						}
					}
				}
			}
		}
	}
}
MOTION
Frames: 14
Frame Time: .0083333
2.6628 17.6375 8.6575 -9.9950 -5.7343 20.6818 0.0000 0.0000 0.0000 -16.2545 -47.0257 13.4712 0.2379 -3.1389 -8.6658 2.1569 38.6086 -58.7042 4.9534 13.3311 40.6208 0.0000 0.0000 0.0000 10.4130 36.5136 -9.3944 -0.0201 -0.9151 2.5153 1.0366 -22.5473 -23.4911 -0.3754 -3.9350 10.8938 -0.3884 0.6875 8.0933 1.9042 1.0311 -3.8600 2.0783 0.5874 -8.6821 5.3039 0.5038 -19.7777 5.4974 -2.8304 27.1278 0.7255 0.0239 12.3471 0.0000 0.0000 0.0000 -70.1174 -5.3947 59.6353 65.3808 -57.5811 -38.8523 -0.0000 0.0000 -70.2639 19.1765 27.3517 9.0784 -7.1250 0.0000 -0.0000 -12.5023 58.2491 -4.0937 0.0000 0.0000 0.0000 91.5806 16.0966 90.8916 -78.9239 59.5313 -50.4229 0.0000 -0.0000 -51.4069 16.1446 -62.9353 -14.4550 7.1250 -0.0000 -0.0000 80.5928 67.3292 104.0971
2.6665 17.6329 8.6858 -9.9331 -5.8901 20.1331 0.0000 0.0000 0.0000 -17.0393 -46.8090 14.1392 0.2189 -3.0121 -8.3125 1.7142 39.3028 -58.3791 4.6640 12.9951 39.3503 0.0000 0.0000 0.0000 10.9301 35.8265 -8.8425 -0.0222 -0.9614 2.6427 0.9919 -22.1576 -23.1529 -0.3232 -3.6544 10.1063 -0.5768 0.8406 7.5813 1.6755 1.1972 -4.0499 1.9202 0.6727 -8.5932 5.0089 0.3119 -19.4582 5.9839 -3.1737 27.6670 0.9122 -0.0786 12.5179 0.0000 -0.0000 0.0000 -70.3980 -2.9879 59.9561 66.7990 -57.8650 -40.0514 -0.0000 0.0000 -69.9335 19.3096 27.3071 9.1317 -7.1250 0.0000 -0.0000 -12.3349 58.2344 -4.0334 0.0000 -0.0000 0.0000 90.7555 14.6829 91.5052 -81.0548 59.6955 -52.2612 0.0000 -0.0000 -51.5967 18.2608 -62.6938 -16.3406 7.1250 -0.0000 -0.0000 79.7602 66.6485 103.9313
2.6681 17.6287 8.7171 -9.8636 -6.2042 19.5426 0.0000 0.0000 0.0000 -17.9036 -46.3847 14.9124 0.2068 -2.9278 -8.0779 1.3457 39.8788 -58.1323 4.4261 12.7068 38.2806 0.0000 0.0000 0.0000 11.4526 35.1542 -8.2519 -0.0242 -1.0048 2.7619 0.9500 -21.7348 -22.7279 -0.2822 -3.4165 9.4405 -0.7976 1.0591 7.1063 1.4047 1.4467 -4.2034 1.7258 0.7990 -8.4890 4.7294 0.1478 -19.0747 6.5875 -3.5098 28.0901 1.1426 -0.1666 12.6374 -0.0000 -0.0000 0.0000 -70.7208 -0.6295 60.2163 68.1493 -58.1168 -41.1964 -0.0000 0.0000 -69.7857 19.2920 27.2710 9.1119 -7.1250 0.0000 -0.0000 -12.3335 58.1946 -4.0211 -0.0000 -0.0000 0.0000 89.9064 13.4017 92.1819 -83.3154 59.8305 -54.2143 0.0000 -0.0000 -52.0507 19.0604 -62.6258 -17.0570 7.1250 -0.0000 -0.0000 79.5187 66.3991 103.9437
2.6731 17.6222 8.7524 -9.7819 -6.4302 18.9650 0.0000 0.0000 0.0000 -18.7562 -46.0559 15.6596 0.1934 -2.8324 -7.8125 0.8733 40.5668 -57.7925 4.1768 12.3920 37.1333 0.0000 0.0000 0.0000 11.9266 34.6434 -7.5176 -0.0242 -1.0036 2.7588 0.8866 -21.3904 -22.7094 -0.2982 -3.5111 9.7051 -0.8420 1.2677 6.6502 1.0829 1.6999 -4.3710 1.3808 0.9157 -8.4032 4.5360 -0.0523 -18.7133 7.1628 -3.9295 28.5528 1.3377 -0.2839 12.7831 0.0000 -0.0000 0.0000 -71.0608 1.7089 60.5058 69.4410 -58.3411 -42.2945 -0.0000 0.0000 -69.8458 19.5182 27.0746 9.1651 -7.1250 0.0000 -0.0000 -11.9830 58.0490 -3.8625 0.0000 -0.0000 0.0000 89.2719 11.7160 92.3224 -85.8461 59.9347 -56.4034 0.0000 -0.0000 -52.5316 19.1834 -63.0917 -17.2362 7.1250 -0.0000 -0.0000 80.6626 66.5380 105.1289
2.6798 17.6166 8.7846 -9.5968 -6.5976 18.4227 0.0000 0.0000 0.0000 -19.5520 -45.8817 16.1598 0.1738 -2.6858 -7.4052 0.0246 41.6448 -57.0754 3.8146 11.9095 35.4125 0.0000 0.0000 0.0000 12.2362 34.0922 -6.8250 -0.0239 -0.9988 2.7456 0.8352 -21.1067 -22.6935 -0.2771 -3.3858 9.3549 -0.8845 1.4742 6.2414 0.7444 1.9499 -4.5184 1.0204 1.0301 -8.3198 4.2867 -0.2869 -18.5810 7.6384 -4.3817 29.0946 1.5035 -0.4256 13.0126 -0.0000 -0.0000 0.0000 -71.4240 3.9153 60.8061 70.7435 -58.5514 -43.4045 -0.0000 0.0000 -69.9858 19.8904 26.8607 9.2841 -7.1250 0.0000 -0.0000 -11.4694 57.9175 -3.6576 -0.0000 -0.0000 0.0000 89.0171 9.3133 91.2342 -88.6328 59.9929 -58.8160 0.0000 -0.0000 -51.9184 23.3444 -64.0300 -21.2066 7.1250 -0.0000 -0.0000 82.6598 65.7860 108.4025
2.6852 17.6116 8.8110 -9.4247 -6.7932 17.8715 0.0000 0.0000 0.0000 -20.1862 -45.7018 16.4809 0.1527 -2.5184 -6.9406 -1.1281 42.9693 -56.0573 3.3898 11.3009 33.3014 0.0000 0.0000 0.0000 12.5595 33.5951 -6.1361 -0.0243 -1.0073 2.7690 0.8082 -20.9048 -22.5852 -0.2185 -3.0090 8.3037 -0.9826 1.6786 6.0019 0.5030 2.1986 -4.6240 0.7926 1.1502 -8.2944 3.8606 -0.4704 -18.5992 8.0997 -4.7019 29.5282 1.7160 -0.5313 13.2327 -0.0000 -0.0000 0.0000 -71.9644 6.0262 60.8904 71.9685 -58.7351 -44.4506 -0.0000 0.0000 -69.9491 20.0863 26.8415 9.3756 -7.1250 0.0000 -0.0000 -11.2494 57.9414 -3.5928 -0.0000 -0.0000 0.0000 88.2021 8.5987 91.7414 -90.3084 59.9996 -60.2671 0.0000 -0.0000 -52.8144 25.9142 -63.9294 -23.5785 7.1250 -0.0000 -0.0000 82.3200 65.1128 108.8589
2.6902 17.6039 8.8365 -9.3013 -6.9741 17.3166 0.0000 0.0000 0.0000 -20.7901 -45.4863 16.8738 0.1353 -2.3705 -6.5308 -2.1230 44.0294 -55.1723 3.0512 10.7774 31.5328 0.0000 0.0000 0.0000 12.9275 33.3211 -5.3106 -0.0232 -0.9830 2.7020 0.7660 -20.7806 -22.7921 -0.2175 -3.0023 8.2851 -1.0708 1.8212 5.8813 0.3113 2.3686 -4.7520 0.6189 1.2329 -8.3617 3.6259 -0.5232 -18.4028 8.4084 -4.8025 29.6965 1.8659 -0.5574 13.2820 0.0000 0.0000 0.0000 -72.6521 8.2441 60.6060 73.3127 -58.9212 -45.6007 -0.0000 0.0000 -69.7540 20.4614 26.9919 9.6116 -7.1250 0.0000 -0.0000 -10.9263 58.1758 -3.5497 0.0000 0.0000 0.0000 87.2353 8.1799 92.5988 -91.7788 59.9880 -61.5404 0.0000 -0.0000 -54.0682 28.4358 -63.7511 -25.9042 7.1250 -0.0000 -0.0000 81.8700 64.4338 109.1985
2.6958 17.5955 8.8597 -9.1085 -7.1516 16.8031 0.0000 0.0000 0.0000 -21.4480 -45.2948 17.2396 0.1193 -2.2270 -6.1334 -3.0602 44.9562 -54.3107 2.7344 10.2522 29.7974 0.0000 0.0000 0.0000 13.1514 33.1805 -4.4629 -0.0209 -0.9330 2.5645 0.6756 -20.5838 -23.3563 -0.2608 -3.2858 9.0754 -1.1825 1.9404 5.7532 0.0614 2.5002 -4.8800 0.4025 1.2961 -8.4216 3.5678 -0.5614 -18.1069 8.6767 -4.9018 29.6895 1.9646 -0.5788 13.2328 0.0000 -0.0000 0.0000 -73.3879 10.3600 60.1329 74.7441 -59.1020 -46.8278 -0.0000 0.0000 -69.6042 21.0450 27.1176 9.9475 -7.1250 0.0000 -0.0000 -10.3622 58.4333 -3.4281 0.0000 -0.0000 0.0000 86.1975 8.1257 93.5916 -93.1448 59.9626 -62.7232 0.0000 -0.0000 -55.7069 27.3412 -63.9513 -24.9162 7.1250 -0.0000 -0.0000 82.3471 64.7769 109.3230
2.7004 17.5890 8.8775 -8.9001 -7.3575 16.2987 0.0000 0.0000 0.0000 -22.0454 -45.0838 17.5237 0.1048 -2.0874 -5.7471 -4.1027 45.9039 -53.2910 2.4195 9.6900 27.9785 0.0000 0.0000 0.0000 13.3194 32.9540 -3.7306 -0.0193 -0.8975 2.4669 0.5968 -20.3433 -23.7088 -0.2676 -3.3279 9.1931 -1.3043 2.0982 5.6691 -0.2016 2.6813 -4.9484 0.1713 1.3833 -8.4430 3.3726 -0.6760 -17.9322 9.1697 -5.1419 29.5957 2.1501 -0.6482 13.1923 0.0000 0.0000 0.0000 -74.1711 12.0822 59.7101 75.9689 -59.2429 -47.8796 -0.0000 0.0000 -69.5548 21.6607 27.0870 10.2507 -7.1250 0.0000 -0.0000 -9.6767 58.5417 -3.2237 0.0000 0.0000 0.0000 85.3801 7.9988 93.9255 -94.6079 59.9196 -63.9895 0.0000 -0.0000 -56.7878 29.5414 -64.2140 -27.0350 7.1250 -0.0000 -0.0000 82.9709 64.3684 110.5963
2.7033 17.5822 8.8909 -8.7327 -7.5675 15.7740 0.0000 0.0000 0.0000 -22.5824 -44.8195 17.8548 0.0941 -1.9786 -5.4465 -5.0454 46.7108 -52.3346 2.1643 9.2003 26.4240 0.0000 0.0000 0.0000 13.5357 32.6308 -3.0793 -0.0185 -0.8793 2.4166 0.5642 -20.1852 -23.7510 -0.2419 -3.1650 8.7385 -1.4325 2.2624 5.6555 -0.4226 2.8728 -4.9587 -0.0146 1.4769 -8.4447 3.0820 -0.7868 -17.8579 9.7653 -5.3826 29.4689 2.3919 -0.7142 13.1683 -0.0000 -0.0000 0.0000 -74.8992 13.3688 59.4357 77.0626 -59.3580 -48.8201 -0.0000 0.0000 -69.6468 22.2975 26.7098 10.4435 -7.1250 0.0000 -0.0000 -8.7919 58.3021 -2.8752 -0.0000 -0.0000 0.0000 84.7332 7.8444 93.8706 -95.9079 59.8677 -65.1141 0.0000 -0.0000 -57.3183 27.3346 -64.9272 -25.0887 7.1250 -0.0000 -0.0000 84.7041 65.1501 111.6012
2.7049 17.5752 8.8976 -8.6317 -7.7189 15.3241 0.0000 0.0000 0.0000 -22.9552 -44.5907 18.1374 0.0869 -1.9018 -5.2343 -5.7247 47.2758 -51.6426 1.9742 8.8122 25.2097 0.0000 0.0000 0.0000 13.7663 32.3830 -2.5637 -0.0187 -0.8827 2.4262 0.5348 -20.0905 -23.8728 -0.2351 -3.1204 8.6141 -1.5409 2.3882 5.7028 -0.5744 3.0186 -4.9879 -0.1362 1.5493 -8.5042 2.6830 -0.8558 -17.7677 10.3972 -5.5328 29.3079 2.6805 -0.7507 13.1272 0.0000 -0.0000 0.0000 -75.5427 14.3240 59.2731 78.2285 -59.4699 -49.8238 -0.0000 0.0000 -69.8059 23.0407 26.0140 10.5664 -7.1250 0.0000 -0.0000 -7.6530 57.7549 -2.3988 0.0000 -0.0000 0.0000 84.0026 7.8941 93.9173 -96.9557 59.8164 -66.0201 0.0000 -0.0000 -57.8817 25.3953 -64.8174 -23.2491 7.1250 -0.0000 -0.0000 84.5071 65.5648 110.8328
2.7066 17.5691 8.8979 -8.5888 -7.7985 15.0128 0.0000 0.0000 0.0000 -23.1195 -44.4651 18.2392 0.0801 -1.8254 -5.0234 -6.2997 47.7256 -51.0106 1.7951 8.4255 24.0140 0.0000 0.0000 0.0000 13.9369 32.1124 -2.3381 -0.0206 -0.9267 2.5471 0.4794 -19.8893 -24.0622 -0.2786 -3.3946 9.3794 -1.6024 2.4627 5.8159 -0.6729 3.1019 -5.0952 -0.2258 1.5902 -8.6866 2.5829 -0.7941 -17.3223 10.7558 -5.4280 28.8036 2.8346 -0.7049 12.8348 0.0000 0.0000 0.0000 -76.1407 15.0892 59.1419 79.6577 -59.5919 -51.0556 -0.0000 0.0000 -69.7147 24.1056 25.1636 10.7720 -7.1250 0.0000 -0.0000 -6.1295 57.1084 -1.8230 0.0000 0.0000 0.0000 83.4611 7.7423 93.5477 -97.9539 59.7596 -66.8827 0.0000 -0.0000 -58.1674 23.8200 -64.4673 -21.7201 7.1250 -0.0000 -0.0000 83.7254 65.8236 109.5957
2.7098 17.5622 8.8975 -8.5297 -7.8655 14.8044 0.0000 0.0000 0.0000 -22.7624 -43.3020 17.4961 0.0788 -1.8104 -4.9820 -6.5944 47.2788 -49.0516 1.6417 8.0760 22.9453 0.0000 0.0000 0.0000 13.9942 31.7331 -2.3716 -0.0241 -1.0019 2.7540 0.4293 -19.6197 -24.0891 -0.3352 -3.7205 10.2918 -1.6869 2.5046 5.8894 -0.7439 3.1415 -5.2065 -0.2666 1.6122 -8.8528 2.3892 -0.7596 -17.0111 11.1601 -5.3620 28.3367 3.0166 -0.6755 12.5949 0.0000 0.0000 0.0000 -76.7467 15.6001 59.0034 81.3767 -59.7171 -52.5391 -0.0000 0.0000 -69.1907 25.6665 24.0968 11.1003 -7.1250 0.0000 -0.0000 -4.0348 56.3257 -1.1219 0.0000 0.0000 0.0000 83.3441 7.0853 92.3426 -98.9088 59.6980 -67.7074 0.0000 -0.0000 -57.1981 25.3871 -65.3609 -23.3330 7.1250 -0.0000 -0.0000 85.8484 65.7471 112.1345
2.7125 17.5569 8.8951 -8.4281 -7.8961 14.6888 0.0000 0.0000 0.0000 -22.6634 -42.7188 17.1075 0.0776 -1.7970 -4.9450 -6.7004 47.0006 -48.0084 1.5728 7.9130 22.4501 0.0000 0.0000 0.0000 13.9321 31.2984 -2.5748 -0.0279 -1.0777 2.9625 0.4151 -19.4568 -23.9542 -0.3355 -3.7222 10.2965 -1.7996 2.5528 5.9602 -0.8394 3.1844 -5.3172 -0.3182 1.6368 -9.0174 2.5703 -0.5848 -16.5830 11.2290 -5.0586 27.6195 3.0273 -0.5583 12.1970 0.0000 -0.0000 0.0000 -77.2435 15.8196 58.9637 83.3487 -59.8322 -54.2430 -0.0000 0.0000 -68.3083 27.7795 22.8121 11.5433 -7.1250 0.0000 -0.0000 -1.3494 55.4012 -0.3446 0.0000 -0.0000 0.0000 81.7855 8.0545 92.9281 -99.7519 59.6376 -68.4351 0.0000 -0.0000 -57.8655 35.2952 -63.0255 -32.2477 7.1250 -0.0000 -0.0000 80.5053 62.5382 110.0381
